<?xml version="1.0" encoding="UTF-8" standalone="no"?>
<!DOCTYPE svg PUBLIC "-//W3C//DTD SVG 20010904//EN"
              "http://www.w3.org/TR/2001/REC-SVG-20010904/DTD/svg10.dtd">

<svg xmlns="http://www.w3.org/2000/svg"
     viewBox="0 0 1328 1949">
  <path id="Selection"
        fill="hsl(216, 11.6%, 8.4%)" stroke="black" stroke-width="1"
        d="M 513.00,50.22
           C 513.00,50.22 536.00,50.22 536.00,50.22
             547.93,50.00 558.62,49.25 570.00,53.86
             578.59,57.34 587.03,61.71 595.00,66.45
             601.76,70.48 605.47,74.50 614.00,73.90
             620.58,73.45 627.93,68.90 634.00,66.45
             642.89,62.86 654.43,59.90 664.00,60.00
             680.27,60.19 701.83,68.47 714.00,79.18
             714.00,79.18 733.00,99.91 733.00,99.91
             733.00,99.91 740.91,106.32 740.91,106.32
             740.91,106.32 754.17,121.00 754.17,121.00
             761.13,128.70 764.68,130.81 769.13,141.00
             773.89,151.93 773.41,160.80 775.28,172.00
             776.33,178.24 778.94,186.95 781.00,193.00
             781.00,193.00 785.12,205.00 785.12,205.00
             785.12,205.00 789.04,222.00 789.04,222.00
             789.04,222.00 796.76,245.00 796.76,245.00
             799.14,255.13 798.90,262.86 798.18,273.00
             797.59,281.34 800.28,290.90 808.00,295.02
             816.13,299.35 829.82,298.99 829.92,311.00
             829.99,319.61 824.14,322.91 821.93,331.00
             820.36,336.72 820.78,351.32 817.28,363.00
             817.28,363.00 811.13,380.00 811.13,380.00
             806.44,390.94 802.53,395.96 803.04,409.00
             803.04,409.00 808.58,439.00 808.58,439.00
             808.58,439.00 812.61,466.00 812.61,466.00
             812.61,466.00 817.55,488.00 817.55,488.00
             820.03,500.30 821.06,517.39 821.00,530.00
             820.94,541.98 814.31,556.56 810.34,568.00
             810.34,568.00 798.57,600.00 798.57,600.00
             798.57,600.00 790.42,618.00 790.42,618.00
             790.42,618.00 783.19,641.00 783.19,641.00
             783.19,641.00 775.69,659.00 775.69,659.00
             770.89,669.48 766.86,674.04 771.10,686.00
             773.20,691.92 779.30,699.67 782.98,705.00
             801.25,731.52 800.78,727.39 820.91,749.00
             827.82,756.41 834.36,764.27 839.55,773.00
             843.59,779.80 847.55,789.37 853.09,794.91
             858.83,800.64 868.72,804.37 876.00,808.31
             876.00,808.31 914.00,829.58 914.00,829.58
             936.32,839.36 979.66,850.24 1005.00,858.34
             1005.00,858.34 1037.00,870.42 1037.00,870.42
             1037.00,870.42 1063.00,880.97 1063.00,880.97
             1063.00,880.97 1090.00,888.34 1090.00,888.34
             1090.00,888.34 1110.00,896.31 1110.00,896.31
             1117.67,898.98 1125.15,899.12 1131.96,904.05
             1141.75,911.14 1143.22,925.34 1147.45,936.00
             1147.45,936.00 1162.22,965.00 1162.22,965.00
             1162.22,965.00 1174.01,995.00 1174.01,995.00
             1174.01,995.00 1184.99,1020.00 1184.99,1020.00
             1184.99,1020.00 1198.12,1060.00 1198.12,1060.00
             1198.12,1060.00 1205.80,1097.00 1205.80,1097.00
             1205.80,1097.00 1218.47,1157.00 1218.47,1157.00
             1225.52,1185.17 1243.05,1238.53 1246.57,1263.00
             1248.67,1277.58 1247.83,1292.31 1248.00,1307.00
             1248.00,1307.00 1249.04,1317.00 1249.04,1317.00
             1249.04,1317.00 1249.04,1326.00 1249.04,1326.00
             1249.04,1326.00 1259.92,1386.00 1259.92,1386.00
             1259.92,1386.00 1267.28,1445.00 1267.28,1445.00
             1271.26,1475.24 1275.65,1505.49 1276.00,1536.00
             1276.00,1536.00 1277.00,1549.00 1277.00,1549.00
             1277.00,1549.00 1277.00,1571.00 1277.00,1571.00
             1277.00,1571.00 1278.00,1588.00 1278.00,1588.00
             1278.00,1588.00 1278.00,1691.00 1278.00,1691.00
             1278.00,1691.00 1276.96,1706.00 1276.96,1706.00
             1276.96,1706.00 1276.96,1718.00 1276.96,1718.00
             1276.96,1718.00 1276.00,1728.00 1276.00,1728.00
             1276.00,1728.00 1274.17,1754.00 1274.17,1754.00
             1270.71,1789.72 1267.49,1816.54 1256.00,1851.00
             1249.15,1871.54 1243.57,1891.46 1220.00,1897.52
             1214.81,1898.86 1212.27,1898.99 1207.00,1899.00
             1207.00,1899.00 688.00,1899.00 688.00,1899.00
             688.00,1899.00 169.00,1899.00 169.00,1899.00
             157.35,1898.98 141.36,1894.77 133.32,1885.91
             126.66,1878.56 120.60,1862.49 116.80,1853.00
             107.22,1829.05 98.96,1803.88 92.15,1779.00
             92.15,1779.00 83.12,1741.00 83.12,1741.00
             72.78,1697.40 63.43,1648.56 59.17,1604.00
             59.17,1604.00 56.91,1568.00 56.91,1568.00
             56.91,1568.00 55.00,1544.00 55.00,1544.00
             55.00,1544.00 55.00,1515.00 55.00,1515.00
             55.00,1515.00 54.00,1498.00 54.00,1498.00
             54.00,1498.00 54.00,1449.00 54.00,1449.00
             54.00,1449.00 52.72,1426.00 52.72,1426.00
             52.72,1426.00 50.00,1401.00 50.00,1401.00
             50.00,1401.00 50.00,1362.00 50.00,1362.00
             50.00,1362.00 51.00,1342.00 51.00,1342.00
             51.00,1342.00 51.91,1332.00 51.91,1332.00
             51.91,1332.00 55.91,1289.00 55.91,1289.00
             55.91,1289.00 57.00,1257.00 57.00,1257.00
             57.00,1257.00 58.00,1240.00 58.00,1240.00
             58.00,1240.00 58.00,1205.00 58.00,1205.00
             58.00,1205.00 59.00,1188.00 59.00,1188.00
             59.04,1159.17 59.51,1130.61 63.28,1102.00
             63.28,1102.00 75.59,1038.00 75.59,1038.00
             79.97,1011.89 82.21,980.33 104.00,962.33
             109.66,957.65 124.61,951.74 132.00,948.58
             132.00,948.58 172.00,929.74 172.00,929.74
             172.00,929.74 186.00,922.25 186.00,922.25
             186.00,922.25 202.00,914.74 202.00,914.74
             202.00,914.74 248.00,892.85 248.00,892.85
             248.00,892.85 307.00,868.58 307.00,868.58
             307.00,868.58 341.00,852.25 341.00,852.25
             351.58,846.96 368.64,838.48 378.00,831.96
             391.20,822.78 411.17,802.22 422.17,790.00
             429.09,782.31 446.75,762.31 451.02,754.00
             455.22,745.82 456.14,736.65 459.00,728.00
             467.04,703.67 475.97,707.42 476.00,685.00
             476.00,685.00 476.00,679.00 476.00,679.00
             476.00,679.00 474.27,662.00 474.27,662.00
             471.05,639.42 464.59,617.90 449.68,600.00
             441.20,589.82 434.76,586.71 426.00,578.83
             413.29,567.39 405.42,558.00 397.31,543.00
             397.31,543.00 378.14,504.00 378.14,504.00
             372.40,493.65 364.76,484.17 360.69,473.00
             354.50,455.98 357.17,445.01 352.25,430.00
             352.25,430.00 341.75,405.00 341.75,405.00
             337.69,392.35 330.02,360.72 330.00,348.00
             330.00,348.00 329.00,324.00 329.00,324.00
             329.00,324.00 329.96,312.00 329.96,312.00
             329.96,312.00 329.96,295.00 329.96,295.00
             330.03,273.87 339.11,252.42 346.54,233.00
             346.54,233.00 351.78,217.00 351.78,217.00
             360.05,199.63 374.43,179.33 386.12,164.00
             386.12,164.00 408.17,135.00 408.17,135.00
             417.32,124.86 424.08,119.97 435.00,112.28
             440.61,108.32 447.30,102.42 451.47,97.00
             455.05,92.36 455.57,89.27 460.18,84.00
             465.24,78.23 471.03,73.18 477.00,68.40
             489.76,58.19 496.71,53.45 513.00,50.22 Z" />
</svg>
